<svg width="113" height="113" viewBox="0 0 113 113" fill="none" xmlns="http://www.w3.org/2000/svg">
<rect width="113" height="113" rx="56.5" fill="#C084FC" fill-opacity="0.1"/>
<path d="M34.8334 61.9167C34.3208 61.9185 33.8184 61.7748 33.3843 61.5023C32.9502 61.2298 32.6023 60.8398 32.3811 60.3775C32.1599 59.9151 32.0744 59.3996 32.1345 58.8906C32.1946 58.3816 32.398 57.9002 32.7209 57.5021L59.5334 29.8771C59.7345 29.645 60.0086 29.4881 60.3106 29.4322C60.6126 29.3764 60.9247 29.4249 61.1955 29.5698C61.4664 29.7146 61.6799 29.9473 61.8011 30.2295C61.9223 30.5118 61.944 30.8268 61.8625 31.123L56.6625 47.4271C56.5092 47.8375 56.4577 48.279 56.5125 48.7136C56.5672 49.1483 56.7266 49.5631 56.9769 49.9227C57.2273 50.2822 57.5611 50.5756 57.9497 50.7778C58.3384 50.9799 58.7703 51.0848 59.2084 51.0834H78.1667C78.6792 51.0816 79.1817 51.2254 79.6158 51.4978C80.0499 51.7703 80.3977 52.1603 80.619 52.6227C80.8402 53.085 80.9257 53.6005 80.8655 54.1095C80.8054 54.6185 80.6021 55.1 80.2792 55.498L53.4667 83.123C53.2656 83.3551 52.9915 83.512 52.6894 83.5679C52.3874 83.6237 52.0754 83.5752 51.8045 83.4304C51.5337 83.2855 51.3201 83.0528 51.1989 82.7706C51.0777 82.4884 51.0561 82.1733 51.1375 81.8771L56.3375 65.573C56.4909 65.1626 56.5423 64.7211 56.4876 64.2865C56.4328 63.8518 56.2734 63.437 56.0231 63.0774C55.7728 62.7179 55.439 62.4245 55.0503 62.2223C54.6617 62.0202 54.2298 61.9153 53.7917 61.9167H34.8334Z" stroke="url(#paint0_linear_2069_23)" stroke-width="3.33333" stroke-linecap="round" stroke-linejoin="round"/>
<defs>
<linearGradient id="paint0_linear_2069_23" x1="32.1158" y1="56.5001" x2="80.8843" y2="56.5001" gradientUnits="userSpaceOnUse">
<stop stop-color="#A855F7"/>
<stop offset="1" stop-color="#EC4899"/>
</linearGradient>
</defs>
</svg>
