<svg width="122" height="122" viewBox="0 0 122 122" fill="none" xmlns="http://www.w3.org/2000/svg">
<rect width="122" height="122" rx="61" fill="#C084FC" fill-opacity="0.1"/>
<path d="M20.001 47.1071C20.3745 46.55 20.9732 46.2511 21.5431 45.9218C22.5017 45.3681 24.8729 44.0694 25.8324 43.7654C26.5861 43.5267 27.1501 43.4987 27.6412 44.1794C28.0037 44.6815 29.9726 49.1322 30.1377 49.7816C30.4663 51.0744 29.8269 52.1293 28.422 51.6619C27.6616 51.4088 27.2398 49.4692 26.8206 48.8062C26.7139 48.6378 26.8308 48.5167 26.4497 48.5946C24.8153 53.3526 23.3774 57.7652 23.639 62.8907C24.657 82.8626 40.9833 97.6405 60.5911 98.6759C61.7987 98.7394 64.4502 98.041 64.451 99.9171C64.451 101.657 61.6311 101.355 60.426 101.32C39.5961 100.724 22.0046 83.7761 20.9859 62.8983C20.7234 57.5248 22.1799 52.7422 23.9676 47.7683C22.4187 48.1662 21.2128 49.9272 20.0002 47.9325V47.1062L20.001 47.1071Z" fill="url(#paint0_linear_2112_1723)"/>
<path d="M63.9794 20C73.221 20.8661 82.0875 24.5743 89.1883 30.5828C90.9497 32.0729 92.7746 33.8347 94.0729 35.7007L94.4014 35.6186C94.4277 34.5992 94.0381 32.8772 95.4905 32.7273C96.5583 32.6173 96.9691 33.5697 97.0521 34.4561C97.163 35.644 97.2121 38.961 97.036 40.0727C96.9318 40.7305 96.3009 41.2808 95.6446 41.2935C95.399 41.2977 95.1136 41.1487 94.8206 41.1496C93.5165 41.1538 89.9394 41.3934 88.9367 41.0827C87.5615 40.656 88.2101 38.5123 89.3585 38.5123H93.0787C81.996 24.4431 62.7963 18.438 46.0119 25.9213C41.0595 28.1293 37.0057 31.2864 33.3083 35.2046C32.702 35.8472 31.4715 37.7969 30.667 37.8672C29.5102 37.968 28.9852 37.0511 29.296 35.986C29.3942 35.6482 31.419 33.3267 31.8204 32.8907C38.6299 25.4963 48.7971 20.6197 58.8543 20H63.9794Z" fill="url(#paint1_linear_2112_1723)"/>
<path d="M65.9711 39.1661C68.6311 39.5386 71.02 40.8094 73.3235 42.1022C74.7334 41.2462 76.7134 37.4406 78.5366 38.7537C79.2022 39.2338 82.8708 42.8988 83.3238 43.5533C83.649 44.0231 83.8235 44.5633 83.5677 45.1212C83.2171 45.8866 80.7757 47.6069 80.1719 48.5052C79.8103 49.0428 80.818 50.1722 81.0949 50.7403C81.9655 52.5258 82.5261 54.4062 83.1519 56.2874C83.6262 56.6015 87.2566 56.19 88.1974 56.3678C88.8436 56.4897 89.0655 57.1873 89.1188 57.7605C89.2501 59.1828 89.3093 63.2043 89.101 64.5352C88.7962 66.485 84.4501 65.2785 83.0097 65.6358C82.5515 68.3213 81.3092 70.7469 80.0423 73.1158C80.1058 73.4443 82.7853 75.7412 83.2265 76.3787C83.8074 77.2168 83.8785 77.6613 83.2451 78.5156C82.7903 79.1285 79.0752 82.8681 78.5222 83.216C78.0886 83.4878 77.534 83.6089 77.0445 83.3845C76.2789 83.034 74.5582 80.5932 73.6597 79.9895C73.1219 79.628 71.9931 80.6355 71.424 80.9123C69.6973 81.7531 67.8681 82.4304 65.9813 82.8257C65.8179 83.0162 66.0745 87.0834 65.9551 87.8411C65.8357 88.5989 65.2971 88.8664 64.5671 88.9333C62.3644 89.1339 59.8569 88.7724 57.6187 88.9214C57.2613 88.8537 56.7753 88.361 56.7092 88.0122C56.5635 87.2434 56.8625 83.0264 56.6889 82.8249C54.0052 82.3592 51.5909 81.0944 49.2062 79.8608C48.1984 80.4967 46.2286 83.3083 45.2031 83.4632C44.9541 83.5005 44.6628 83.5098 44.4223 83.437C43.5882 83.1838 40.2457 78.96 39.1804 78.2658C38.8145 77.7146 38.7815 77.2837 39.1126 76.708C39.5038 76.0265 42.6482 73.4671 42.5838 73.0514C41.145 70.785 40.2355 68.2663 39.5208 65.6934C38.281 65.3116 34.2153 66.2234 33.6445 64.9568L33.57 57.2839C33.6259 56.8309 33.8884 56.5033 34.3389 56.4C35.2256 56.1959 39.2896 56.6133 39.5979 56.2036C40.1703 53.5892 41.239 51.1213 42.6135 48.8421C41.903 47.783 38.6308 45.5149 38.8746 44.256C38.9305 43.9681 39.9747 42.7922 40.2525 42.4781C40.9257 41.7186 43.3663 39.1313 44.081 38.7038C44.6171 38.3838 45.0566 38.2906 45.613 38.6098C46.3193 39.0145 48.8717 42.1707 49.3188 42.1267C51.5426 40.6434 54.0679 39.7426 56.6313 39.0187C56.8845 38.6615 56.6008 34.9702 56.7007 34.1295C56.7973 33.3184 57.3088 32.984 58.1048 32.8892C59.4928 32.7232 62.809 32.7545 64.2326 32.8866C67.2084 33.1626 65.5249 37.1121 65.9703 39.1669L65.9711 39.1661ZM63.318 35.5374H59.3497V40.4131C59.3497 40.4529 59.0253 41.0439 58.9669 41.1057C58.6612 41.4325 55.1078 42.2275 54.2262 42.5644C53.5344 42.8286 52.7282 43.2028 52.071 43.5499C50.8871 44.1755 49.4992 45.7748 48.2645 44.8816C47.3863 44.2467 45.8941 42.1199 45.1294 41.7254C44.8906 41.6018 44.8864 41.6881 44.7128 41.8075C44.4147 42.0124 42.135 44.3389 42.1672 44.5218C42.7591 45.4446 45.3852 47.3174 45.5918 48.2156C45.845 49.3163 44.3038 51.0493 43.7787 52.1177C43.3265 53.0372 42.876 54.2241 42.5694 55.2062C42.2078 56.361 42.174 59.0076 40.5844 59.0076H36.2028V62.9749H40.9147C41.0536 62.9749 41.759 63.4583 41.8657 63.6767C42.1164 64.1881 42.1723 65.3268 42.367 65.9855C42.8734 67.6999 43.4518 69.1095 44.2758 70.6885C44.7755 71.646 45.8831 72.6467 45.5867 73.7601C45.3081 74.8065 42.6981 76.4439 42.2273 77.3557C42.1037 77.5944 42.19 77.5987 42.3094 77.7722C42.8777 78.5994 44.2343 79.4765 44.8822 80.3265C45.1464 80.3265 47.9291 76.8849 48.7235 76.7215C48.9377 76.6775 49.0918 76.6835 49.3044 76.7241C49.9497 76.8494 52.4419 78.596 53.4505 79.0354C54.1949 79.3605 54.9766 79.6289 55.7506 79.8769C56.6719 80.1724 59.3488 80.3578 59.3488 81.5685V86.2791H63.3171V81.4034C63.3171 81.2789 63.8066 80.6855 63.9895 80.5881C66.2819 80.1123 68.4702 79.4841 70.5373 78.3733C71.3732 77.9246 72.9432 76.5471 73.7774 76.7207C74.5742 76.8866 77.3544 80.3256 77.6187 80.3256L80.4344 77.5191C80.5589 77.2253 77.5433 74.6422 77.2045 74.1317C76.406 72.927 77.5272 72.1853 78.0599 71.1838C79.3564 68.7455 80.2871 66.3927 80.7706 63.6463C80.868 63.4634 81.4616 62.974 81.5861 62.974H86.4631V59.0067H81.9164C81.8724 59.0067 81.1864 58.7113 81.1085 58.6571C80.5453 58.2626 80.1744 55.6143 79.8967 54.7448C79.6985 54.1242 79.3708 53.3301 79.0998 52.7315C78.6611 51.7605 76.7667 49.1131 76.8988 48.385C77.0479 47.568 79.9373 45.4015 80.4979 44.5218C80.531 44.3372 78.2665 42.0234 77.9523 41.8075C77.7779 41.6881 77.7745 41.6018 77.5357 41.7254C76.771 42.1208 75.2788 44.2467 74.4006 44.8816C73.1058 45.8171 71.33 43.9182 70.0419 43.2756C69.135 42.8226 67.9257 42.3705 66.9526 42.0666C66.2243 41.8389 63.3163 41.5264 63.3163 40.5782V35.5366L63.318 35.5374Z" fill="url(#paint2_linear_2112_1723)"/>
<path d="M98.9829 45.503C99.7078 46.0981 101.071 51.823 101.292 53.0269C102.147 57.6791 102.261 62.14 101.457 66.8075C99.0379 80.8615 88.349 93.1435 75.2229 98.3494L77.9464 99.8377C78.7551 100.946 77.6762 102.382 76.3746 101.906L70.716 99.3425C70.2697 98.9259 70.1063 98.2681 70.3527 97.6924L73.8138 92.3942C76.4636 91.2081 76.5465 94.0341 74.8918 95.4556C74.8681 95.5826 75.0434 95.5555 75.1399 95.5394C75.9173 95.409 79.2039 93.5448 80.0669 93.0266C94.3828 84.4291 102.245 68.1468 98.2859 51.5699C98.0175 50.4472 96.7421 47.2826 96.737 46.5299C96.7303 45.4107 98.2182 44.8756 98.982 45.503H98.9829Z" fill="url(#paint3_linear_2112_1723)"/>
<path d="M60.1423 49.8002C74.2575 48.3668 77.0928 69.4851 63.3265 71.9919C48.2365 74.7401 45.1777 51.319 60.1423 49.8002ZM60.4734 52.445C49.0978 53.5118 51.242 71.4205 62.8632 69.3793C73.2117 67.5624 71.2792 51.4316 60.4734 52.445Z" fill="url(#paint4_linear_2112_1723)"/>
<defs>
<linearGradient id="paint0_linear_2112_1723" x1="20.0002" y1="72.4866" x2="64.451" y2="72.4866" gradientUnits="userSpaceOnUse">
<stop stop-color="#A855F7"/>
<stop offset="1" stop-color="#EC4899"/>
</linearGradient>
<linearGradient id="paint1_linear_2112_1723" x1="29.2079" y1="30.6468" x2="97.152" y2="30.6468" gradientUnits="userSpaceOnUse">
<stop stop-color="#A855F7"/>
<stop offset="1" stop-color="#EC4899"/>
</linearGradient>
<linearGradient id="paint2_linear_2112_1723" x1="33.57" y1="60.8857" x2="89.2377" y2="60.8857" gradientUnits="userSpaceOnUse">
<stop stop-color="#A855F7"/>
<stop offset="1" stop-color="#EC4899"/>
</linearGradient>
<linearGradient id="paint3_linear_2112_1723" x1="70.2379" y1="73.618" x2="102.001" y2="73.618" gradientUnits="userSpaceOnUse">
<stop stop-color="#A855F7"/>
<stop offset="1" stop-color="#EC4899"/>
</linearGradient>
<linearGradient id="paint4_linear_2112_1723" x1="50.3432" y1="60.9732" x2="72.311" y2="60.9732" gradientUnits="userSpaceOnUse">
<stop stop-color="#A855F7"/>
<stop offset="1" stop-color="#EC4899"/>
</linearGradient>
</defs>
</svg>
