<svg width="122" height="122" viewBox="0 0 122 122" fill="none" xmlns="http://www.w3.org/2000/svg">
<rect width="122" height="122" rx="61" fill="#C084FC" fill-opacity="0.1"/>
<path d="M92.9308 35.0007C94.5844 35.2884 96.0833 36.1315 97.0171 37.5425C100.062 42.1446 95.5277 47.9186 90.3911 46.1517L90.2225 46.2456L85.5425 52.7797C87.5919 55.2694 87.3676 58.8788 84.8784 60.9766C82.08 63.3349 77.7042 62.4191 76.0792 59.1569C75.8593 58.7151 75.7721 58.189 75.5294 57.8023L61.4096 55.0948C61.1853 55.6275 61.0255 56.1749 60.7558 56.6907C58.3766 61.2371 52.0841 62.0178 48.7461 58.0819C48.5695 57.8735 47.9384 56.8382 47.7984 56.8345L34.3844 62.8022C35.1144 67.1857 30.8698 70.6828 26.6743 69.1066C25.1652 68.5394 23.7996 67.1306 23.3027 65.5934C23.1744 65.1957 23.126 64.7819 23.0124 64.382C23.0403 63.9791 22.9736 63.5323 23.0124 63.136C23.4603 58.5324 28.8923 56.5072 32.4912 59.4012C32.733 59.5956 32.961 60.0264 33.2798 59.9735L46.9533 53.9406C47.094 53.8246 47.009 52.7717 47.0354 52.484C47.2809 49.7831 49.3985 47.2472 51.947 46.4085C56.218 45.0034 60.6825 47.6735 61.4587 52.0621L75.794 54.777C76.6758 51.7224 80.1229 50.1353 83.1083 51.1097L87.7949 44.4699C87.8279 44.3026 87.3009 43.6532 87.1821 43.4272C85.3248 39.9081 87.6278 35.3882 91.6129 35H92.9308V35.0007ZM91.89 38.0253C88.2339 38.4516 89.0996 44.2358 92.8758 43.4082C96.1133 42.6986 95.4053 37.6151 91.89 38.0253ZM53.5991 49.0889C52.4146 49.2305 51.192 50.1272 50.6013 51.1442C48.5343 54.7029 52.1024 58.8399 55.9351 57.288C60.4281 55.469 58.8493 48.4608 53.5998 49.0889H53.5991ZM80.8346 53.8518C77.1669 54.2795 78.0919 60.1467 81.8784 59.2192C85.0712 58.437 84.3302 53.4438 80.8346 53.8518ZM28.4137 61.0323C24.6477 61.4645 25.6819 67.3764 29.4581 66.4005C32.6399 65.578 31.8095 60.6427 28.4137 61.0323Z" fill="url(#paint0_linear_2112_1719)"/>
<path d="M41.1951 60.6716C41.4209 60.4434 41.9112 60.2115 42.2337 60.2034C43.3075 60.1778 43.7554 61.2843 44.3527 61.9652C50.3198 68.7708 61.3436 67.712 65.7539 59.7881C66.0471 59.2606 66.253 58.6611 66.536 58.1533C67.4397 56.5339 69.6863 57.3638 69.3388 59.1997C69.3022 59.3941 69.0728 59.8725 68.9797 60.086C68.4329 61.3342 67.5878 62.5676 66.7236 63.6132L67.343 64.2347C68.4886 62.8618 70.1817 62.4884 71.6271 63.6859L86.2674 78.3427C87.1022 79.312 87.1668 80.7267 86.3803 81.7503C85.8716 82.4129 83.2527 85.0552 82.6033 85.5174C81.4291 86.3539 79.939 86.0501 78.9817 85.0478L64.3459 70.3139C63.4355 68.9022 63.9933 67.4119 65.1778 66.3883L64.6698 65.8079L64.5262 65.8094C63.5667 66.6172 62.4937 67.304 61.3656 67.8544C54.8642 71.0227 47.0288 69.4562 42.2293 64.0924C41.4656 63.2383 40.0942 61.7847 41.1951 60.6738V60.6716ZM69.7002 66.1491L67.0835 68.8156L81.0333 82.8458L83.7775 80.0993L69.7002 66.1491Z" fill="url(#paint1_linear_2112_1719)"/>
<path d="M52.9416 37.2205C59.0502 36.7935 64.7417 39.581 67.9953 44.7518C68.9313 46.2399 70.052 48.8433 70.2147 50.5918C70.3877 52.4453 67.8817 52.9113 67.3012 51.308C66.8958 50.1868 66.8101 49.0766 66.2699 47.8703C61.035 36.1727 43.4307 38.41 41.3271 51.0952C41.1548 52.132 41.2736 53.0492 41.1695 54.0148C40.965 55.9087 38.3886 55.8023 38.1738 54.2276C37.9737 52.7616 38.319 50.5632 38.7008 49.1258C40.4182 42.6628 46.2189 37.6901 52.9416 37.2198V37.2205Z" fill="url(#paint2_linear_2112_1719)"/>
<defs>
<linearGradient id="paint0_linear_2112_1719" x1="22.9999" y1="52.2457" x2="98.0007" y2="52.2457" gradientUnits="userSpaceOnUse">
<stop stop-color="#A855F7"/>
<stop offset="1" stop-color="#EC4899"/>
</linearGradient>
<linearGradient id="paint1_linear_2112_1719" x1="40.7834" y1="71.6454" x2="86.9337" y2="71.6454" gradientUnits="userSpaceOnUse">
<stop stop-color="#A855F7"/>
<stop offset="1" stop-color="#EC4899"/>
</linearGradient>
<linearGradient id="paint2_linear_2112_1719" x1="38.1151" y1="46.3" x2="70.2232" y2="46.3" gradientUnits="userSpaceOnUse">
<stop stop-color="#A855F7"/>
<stop offset="1" stop-color="#EC4899"/>
</linearGradient>
</defs>
</svg>
