<svg width="122" height="122" viewBox="0 0 122 122" fill="none" xmlns="http://www.w3.org/2000/svg">
<rect width="122" height="122" rx="61" fill="#C084FC" fill-opacity="0.1"/>
<path d="M83.4619 31.3789C84.1332 31.8195 84.8004 32.2924 84.9832 33.1372L84.9581 45.2742C84.5673 47.2023 81.967 47.737 80.8922 46.0713C80.8211 45.9618 80.5377 45.3654 80.5377 45.3079V39.0787L65.924 53.569C65.1745 53.9072 64.397 53.8497 63.7033 53.4217L55.9736 45.684L39.3904 60.1967C37.9653 60.9629 36.55 60.2514 36.0015 58.8173V57.6975C36.2681 57.0828 36.6142 56.6661 37.1125 56.2254L54.9714 40.5901C55.7293 40.2098 56.5682 40.2448 57.2898 40.6953L65.0014 48.3081L77.3386 35.8596H71.1456C70.8218 35.8596 70.0262 35.2407 69.8224 34.9503C68.8481 33.5638 69.5991 31.9318 71.0758 31.3803H83.4632L83.4619 31.3789Z" fill="url(#paint0_linear_2112_1727)"/>
<path d="M36.0015 87.935V86.8152C36.3993 85.8877 37.0679 85.1551 38.1538 85.1299H82.8421C85.7565 85.3881 85.6811 89.3945 82.8421 89.6204H38.1538C37.0693 89.5937 36.3993 88.8626 36.0015 87.935Z" fill="url(#paint1_linear_2112_1727)"/>
<path d="M36.0015 81.2172V68.8978C36.8669 66.4575 40.2251 66.7073 40.461 69.382C40.7192 72.312 40.6801 77.6347 40.461 80.5928C40.253 83.4134 36.973 83.7179 36.0015 81.2172Z" fill="url(#paint2_linear_2112_1727)"/>
<path d="M82.3132 51.5727C83.7313 51.3412 84.9135 52.2603 85 53.7029L84.9944 80.8676C84.6078 83.6209 80.7848 83.5886 80.5349 80.7329L80.5405 53.5682C80.6117 52.6266 81.3933 51.7229 82.3145 51.5727H82.3132Z" fill="url(#paint3_linear_2112_1727)"/>
<path d="M55.5897 56.0512C57.0078 55.8197 58.1901 56.7388 58.2766 58.1814L58.271 80.8669C57.8844 83.6201 54.0614 83.5878 53.8115 80.7322L53.8171 58.0467C53.8883 57.1051 54.6699 56.2014 55.5911 56.0512H55.5897Z" fill="url(#paint4_linear_2112_1727)"/>
<path d="M73.4053 56.0512C74.8234 55.8197 76.0057 56.7388 76.0922 58.1814L76.0866 80.8669C75.7 83.6201 71.877 83.5878 71.6271 80.7322L71.6327 58.0467C71.7039 57.1051 72.4855 56.2014 73.4067 56.0512H73.4053Z" fill="url(#paint5_linear_2112_1727)"/>
<path d="M64.4975 60.5315C65.9492 60.2943 67.056 61.2092 67.1844 62.6616C67.6967 68.4909 66.8006 75.0849 67.1663 80.9941C66.6359 83.6463 62.9636 83.5172 62.7193 80.7317C62.2113 74.9376 63.1116 68.3997 62.7249 62.5269C62.7961 61.5853 63.5777 60.6816 64.4989 60.5315H64.4975Z" fill="url(#paint6_linear_2112_1727)"/>
<path d="M46.6819 62.7707C48.1335 62.5336 49.2404 63.4485 49.3688 64.9009C49.8182 70.0173 49.031 75.8058 49.3506 80.9937C48.8203 83.6459 45.148 83.5168 44.9037 80.7313C44.4585 75.65 45.2485 69.9162 44.9093 64.7662C44.9805 63.8246 45.7621 62.9209 46.6833 62.7707H46.6819Z" fill="url(#paint7_linear_2112_1727)"/>
<defs>
<linearGradient id="paint0_linear_2112_1727" x1="36.0015" y1="45.9441" x2="84.9832" y2="45.9441" gradientUnits="userSpaceOnUse">
<stop stop-color="#A855F7"/>
<stop offset="1" stop-color="#EC4899"/>
</linearGradient>
<linearGradient id="paint1_linear_2112_1727" x1="36.0015" y1="87.3751" x2="84.9997" y2="87.3751" gradientUnits="userSpaceOnUse">
<stop stop-color="#A855F7"/>
<stop offset="1" stop-color="#EC4899"/>
</linearGradient>
<linearGradient id="paint2_linear_2112_1727" x1="36.0015" y1="75.0638" x2="40.6403" y2="75.0638" gradientUnits="userSpaceOnUse">
<stop stop-color="#A855F7"/>
<stop offset="1" stop-color="#EC4899"/>
</linearGradient>
<linearGradient id="paint3_linear_2112_1727" x1="80.5349" y1="67.2206" x2="85" y2="67.2206" gradientUnits="userSpaceOnUse">
<stop stop-color="#A855F7"/>
<stop offset="1" stop-color="#EC4899"/>
</linearGradient>
<linearGradient id="paint4_linear_2112_1727" x1="53.8115" y1="69.4595" x2="58.2766" y2="69.4595" gradientUnits="userSpaceOnUse">
<stop stop-color="#A855F7"/>
<stop offset="1" stop-color="#EC4899"/>
</linearGradient>
<linearGradient id="paint5_linear_2112_1727" x1="71.6271" y1="69.4595" x2="76.0922" y2="69.4595" gradientUnits="userSpaceOnUse">
<stop stop-color="#A855F7"/>
<stop offset="1" stop-color="#EC4899"/>
</linearGradient>
<linearGradient id="paint6_linear_2112_1727" x1="62.5595" y1="71.6994" x2="67.3469" y2="71.6994" gradientUnits="userSpaceOnUse">
<stop stop-color="#A855F7"/>
<stop offset="1" stop-color="#EC4899"/>
</linearGradient>
<linearGradient id="paint7_linear_2112_1727" x1="44.7638" y1="72.8189" x2="49.5112" y2="72.8189" gradientUnits="userSpaceOnUse">
<stop stop-color="#A855F7"/>
<stop offset="1" stop-color="#EC4899"/>
</linearGradient>
</defs>
</svg>
